<?xml version="1.0" standalone="no"?>
<!DOCTYPE svg PUBLIC "-//W3C//DTD SVG 20010904//EN"
 "http://www.w3.org/TR/2001/REC-SVG-20010904/DTD/svg10.dtd">
<svg version="1.0" xmlns="http://www.w3.org/2000/svg"
 width="292.000000pt" height="292.000000pt" viewBox="0 0 292.000000 292.000000"
 preserveAspectRatio="xMidYMid meet">
<metadata>
Created by potrace 1.14, written by Peter Selinger 2001-2017
</metadata>
<g transform="translate(0.000000,292.000000) scale(0.100000,-0.100000)"
fill="#000000" stroke="none">
<path d="M1488 2333 c6 -2 18 -2 25 0 6 3 1 5 -13 5 -14 0 -19 -2 -12 -5z"/>
<path d="M1465 2294 c-31 -33 -31 -36 -2 -79 31 -48 41 -49 71 -6 41 59 37 74
-36 109 -5 2 -19 -9 -33 -24z"/>
<path d="M1559 2213 c-13 -16 -12 -17 4 -4 9 7 17 15 17 17 0 8 -8 3 -21 -13z"/>
<path d="M1480 2065 c-5 -14 -10 -39 -10 -55 0 -29 -36 -216 -45 -229 -2 -5
-28 -11 -56 -14 -73 -9 -95 -27 -114 -92 -18 -62 -20 -63 -130 -91 -38 -10
-119 -42 -180 -72 -99 -49 -120 -65 -212 -158 -107 -106 -142 -126 -183 -104
-36 19 -68 -19 -76 -92 -6 -53 -10 -61 -37 -75 -24 -12 -47 -14 -99 -9 -97 9
-137 -19 -102 -71 13 -21 21 -24 51 -18 54 10 139 8 161 -4 16 -8 21 -26 27
-80 5 -48 13 -76 26 -90 23 -25 37 -26 75 -6 16 8 37 12 47 9 23 -7 51 -35 55
-55 2 -8 8 -15 13 -17 5 -2 9 -9 9 -15 0 -6 14 -26 32 -44 30 -31 28 -48 -2
-20 -12 10 -12 9 -1 -5 7 -10 20 -16 29 -15 26 3 184 -105 169 -116 -7 -5 -4
-6 10 -2 29 8 51 -4 32 -17 -10 -7 -8 -8 6 -4 12 4 50 -7 89 -23 48 -20 63
-30 50 -34 -10 -2 -3 -4 16 -4 19 1 76 -7 125 -17 151 -29 290 -31 440 -5 72
12 148 21 170 21 29 0 34 2 20 8 -20 7 -19 7 2 14 12 4 32 5 45 3 12 -2 17 -2
9 0 -7 3 36 31 98 64 61 32 117 56 124 53 8 -3 20 2 27 11 7 8 9 15 5 15 -4 0
24 30 62 67 37 37 71 66 74 65 4 0 17 11 30 26 l24 27 -27 -24 c-16 -14 -28
-20 -28 -14 0 22 62 65 84 58 61 -17 72 -16 91 5 15 16 21 40 23 95 4 72 5 74
35 84 39 14 96 14 136 0 39 -14 77 -5 79 18 3 64 -30 93 -77 68 -52 -26 -151
-10 -143 24 1 7 -2 10 -7 7 -15 -10 -28 17 -34 68 -3 28 -13 56 -23 67 -18 17
-23 17 -70 5 l-52 -14 -80 88 c-74 80 -139 131 -217 173 -97 51 -169 80 -235
95 l-75 17 -18 55 c-24 74 -54 100 -117 100 -63 0 -65 4 -93 177 -22 138 -37
170 -57 118z m-198 -726 c57 -15 114 -71 133 -130 13 -39 16 -68 10 -126 -6
-70 -10 -79 -48 -120 -60 -65 -81 -73 -194 -73 l-98 0 -48 41 c-63 54 -87 103
-87 176 0 78 15 127 52 169 65 74 160 96 280 63z m620 4 c34 -12 65 -35 99
-70 l49 -52 0 -94 c0 -78 -4 -101 -23 -137 -33 -63 -98 -96 -203 -104 -92 -7
-116 -1 -170 46 -95 83 -119 181 -69 283 32 66 61 99 80 91 9 -3 13 -2 10 4
-7 11 22 27 72 39 60 14 101 12 155 -6z m-36 -595 c11 -12 10 -116 -3 -129
-17 -17 -667 -16 -688 1 -12 10 -15 28 -13 69 3 49 6 56 27 61 35 8 668 6 677
-2z m319 -148 c-3 -5 -11 -10 -16 -10 -6 0 -7 5 -4 10 3 6 11 10 16 10 6 0 7
-4 4 -10z"/>
<path d="M1098 1323 c7 -3 16 -2 19 1 4 3 -2 6 -13 5 -11 0 -14 -3 -6 -6z"/>
<path d="M1268 1323 c7 -3 16 -2 19 1 4 3 -2 6 -13 5 -11 0 -14 -3 -6 -6z"/>
<path d="M1019 1273 l-34 -38 38 34 c20 19 37 36 37 38 0 8 -8 0 -41 -34z"/>
<path d="M1340 1286 c0 -2 8 -10 18 -17 15 -13 16 -12 3 4 -13 16 -21 21 -21
13z"/>
<path d="M1168 1213 c6 -2 18 -2 25 0 6 3 1 5 -13 5 -14 0 -19 -2 -12 -5z"/>
<path d="M967 1191 c-4 -17 -3 -21 5 -13 5 5 8 16 6 23 -3 8 -7 3 -11 -10z"/>
<path d="M1126 1159 c-14 -17 -26 -35 -26 -40 0 -38 65 -89 104 -82 25 5 56
50 56 81 0 10 -12 31 -26 46 -37 36 -75 34 -108 -5z"/>
<path d="M971 1044 c0 -11 3 -14 6 -6 3 7 2 16 -1 19 -3 4 -6 -2 -5 -13z"/>
<path d="M1030 955 c13 -14 26 -25 28 -25 3 0 -5 11 -18 25 -13 14 -26 25 -28
25 -3 0 5 -11 18 -25z"/>
<path d="M1878 1328 c5 -5 16 -8 23 -6 8 3 3 7 -10 11 -17 4 -21 3 -13 -5z"/>
<path d="M1718 1323 c7 -3 16 -2 19 1 4 3 -2 6 -13 5 -11 0 -14 -3 -6 -6z"/>
<path d="M1629 1263 l-24 -28 28 24 c25 23 32 31 24 31 -2 0 -14 -12 -28 -27z"/>
<path d="M1591 1194 c0 -11 3 -14 6 -6 3 7 2 16 -1 19 -3 4 -6 -2 -5 -13z"/>
<path d="M1788 1190 c-9 -6 -27 -24 -38 -41 -19 -26 -21 -34 -10 -60 25 -59
94 -69 130 -19 28 39 25 57 -14 96 -37 37 -42 39 -68 24z"/>
<path d="M1531 2064 c0 -11 3 -14 6 -6 3 7 2 16 -1 19 -3 4 -6 -2 -5 -13z"/>
<path d="M1441 1944 c0 -11 3 -14 6 -6 3 7 2 16 -1 19 -3 4 -6 -2 -5 -13z"/>
<path d="M1552 1940 c0 -14 2 -19 5 -12 2 6 2 18 0 25 -3 6 -5 1 -5 -13z"/>
<path d="M1421 1844 c0 -11 3 -14 6 -6 3 7 2 16 -1 19 -3 4 -6 -2 -5 -13z"/>
<path d="M1567 1829 c4 -13 8 -18 11 -10 2 7 -1 18 -6 23 -8 8 -9 4 -5 -13z"/>
<path d="M1751 1724 c0 -11 3 -14 6 -6 3 7 2 16 -1 19 -3 4 -6 -2 -5 -13z"/>
<path d="M1838 1613 c7 -3 16 -2 19 1 4 3 -2 6 -13 5 -11 0 -14 -3 -6 -6z"/>
<path d="M1918 1593 c7 -3 16 -2 19 1 4 3 -2 6 -13 5 -11 0 -14 -3 -6 -6z"/>
<path d="M2120 1496 c0 -2 7 -7 16 -10 8 -3 12 -2 9 4 -6 10 -25 14 -25 6z"/>
<path d="M789 1443 c-13 -17 -13 -17 6 -3 11 8 22 16 24 17 2 2 0 3 -6 3 -6 0
-17 -8 -24 -17z"/>
<path d="M2181 1457 c2 -1 13 -9 24 -17 19 -14 19 -14 6 3 -7 9 -18 17 -24 17
-6 0 -8 -1 -6 -3z"/>
<path d="M2456 1292 c-2 -4 4 -8 14 -8 10 0 16 4 14 8 -3 4 -9 8 -14 8 -5 0
-11 -4 -14 -8z"/>
<path d="M2531 1224 c0 -11 3 -14 6 -6 3 7 2 16 -1 19 -3 4 -6 -2 -5 -13z"/>
<path d="M461 1204 c0 -11 3 -14 6 -6 3 7 2 16 -1 19 -3 4 -6 -2 -5 -13z"/>
<path d="M2563 990 c-13 -5 -23 -11 -23 -14 0 -7 40 6 46 15 6 10 6 10 -23 -1z"/>
<path d="M2730 970 c-9 -6 -10 -10 -3 -10 6 0 15 5 18 10 8 12 4 12 -15 0z"/>
<path d="M461 834 c0 -11 3 -14 6 -6 3 7 2 16 -1 19 -3 4 -6 -2 -5 -13z"/>
<path d="M480 790 c0 -5 5 -10 11 -10 5 0 7 5 4 10 -3 6 -8 10 -11 10 -2 0 -4
-4 -4 -10z"/>
<path d="M2437 789 c7 -7 15 -10 18 -7 3 3 -2 9 -12 12 -14 6 -15 5 -6 -5z"/>
<path d="M559 773 c-13 -16 -12 -17 4 -4 9 7 17 15 17 17 0 8 -8 3 -21 -13z"/>
<path d="M640 773 c0 -6 8 -17 18 -24 16 -13 16 -13 2 6 -8 11 -16 22 -17 24
-2 2 -3 0 -3 -6z"/>
<path d="M2269 668 c-26 -27 -43 -48 -40 -48 9 0 96 89 90 92 -2 2 -25 -18
-50 -44z"/>
<path d="M812 594 c10 -10 20 -16 22 -13 3 3 -5 11 -17 18 -21 13 -21 12 -5
-5z"/>
<path d="M2116 555 c-11 -8 -15 -15 -9 -15 6 0 16 7 23 15 16 19 11 19 -14 0z"/>
<path d="M1048 463 c7 -3 16 -2 19 1 4 3 -2 6 -13 5 -11 0 -14 -3 -6 -6z"/>
<path d="M1168 423 c7 -3 16 -2 19 1 4 3 -2 6 -13 5 -11 0 -14 -3 -6 -6z"/>
<path d="M1818 423 c7 -3 16 -2 19 1 4 3 -2 6 -13 5 -11 0 -14 -3 -6 -6z"/>
<path d="M1268 403 c6 -2 18 -2 25 0 6 3 1 5 -13 5 -14 0 -19 -2 -12 -5z"/>
<path d="M1708 403 c6 -2 18 -2 25 0 6 3 1 5 -13 5 -14 0 -19 -2 -12 -5z"/>
<path d="M1413 383 c9 -2 25 -2 35 0 9 3 1 5 -18 5 -19 0 -27 -2 -17 -5z"/>
<path d="M1518 383 c18 -2 45 -2 60 0 15 2 0 4 -33 4 -33 0 -45 -2 -27 -4z"/>
</g>
</svg>
